<!DOCTYPE svg PUBLIC "-//W3C//DTD SVG 1.1//EN" "http://www.w3.org/Graphics/SVG/1.1/DTD/svg11.dtd">
<!-- Uploaded to: SVG Repo, www.svgrepo.com, Transformed by: SVG Repo Mixer Tools -->
<svg fill="#163155" width="800px" height="800px" viewBox="0 0 512 512" version="1.1" xml:space="preserve" xmlns="http://www.w3.org/2000/svg" xmlns:xlink="http://www.w3.org/1999/xlink" stroke="#163155">
<g id="SVGRepo_bgCarrier" stroke-width="0"/>
<g id="SVGRepo_tracerCarrier" stroke-linecap="round" stroke-linejoin="round"/>
<g id="SVGRepo_iconCarrier"> <g id="A_-_151_x2C__WLAN_x2C__internet_x2C__social_x2C__group"> <g> <path d="M421.294,354.178v-13.18l-11.411-4.451l-8.887,6.432c-1.15,0.831-2.702,0.83-3.851-0.002l-8.851-6.429l-11.408,4.45v13.18 h2.042v-8.485c0-1.813,1.469-3.28,3.28-3.28c1.811,0,3.279,1.468,3.279,3.28v8.485h27.205v-8.485c0-1.813,1.469-3.28,3.279-3.28 s3.279,1.468,3.279,3.28v8.485H421.294z"/> <path d="M399.314,325.482c5.719,0,9.365-9.858,9.365-15.014c0-5.166-4.201-9.368-9.365-9.368c-5.147,0-9.336,4.202-9.336,9.368 C389.979,315.624,393.615,325.482,399.314,325.482z"/> <path d="M213.316,140.604v-18.699c0-1.346,0.823-2.556,2.075-3.051l15.167-5.984c1.045-0.412,2.23-0.26,3.138,0.403l8.398,6.132 l8.364-6.129c0.909-0.665,2.095-0.818,3.143-0.405l15.166,5.984c1.252,0.495,2.076,1.705,2.076,3.051v18.699 c0,0.083-0.019,0.158-0.025,0.239c6.731-7.107,10.873-16.692,10.873-27.233c0-21.852-17.762-39.63-39.593-39.63 c-21.853,0-39.63,17.778-39.63,39.63c0,10.536,4.141,20.117,10.871,27.222C213.334,140.754,213.316,140.681,213.316,140.604z M242.297,77.689c8.784,0,15.931,7.145,15.931,15.925c0,7.742-5.323,21.573-15.931,21.573c-10.579,0-15.889-13.831-15.889-21.573 C226.408,84.833,233.536,77.689,242.297,77.689z"/> <path d="M242.297,108.628c5.721,0,9.371-9.859,9.371-15.014c0-5.164-4.203-9.365-9.371-9.365c-5.144,0-9.329,4.201-9.329,9.365 C232.968,98.769,236.601,108.628,242.297,108.628z"/> <path d="M415.973,360.737h-33.764h-8.602c-0.012,0-0.021-0.003-0.033-0.003c6.903,5.83,15.813,9.355,25.535,9.355 c9.713,0,18.615-3.525,25.512-9.357c-0.016,0.001-0.031,0.005-0.047,0.005H415.973z"/> <path d="M133.954,181.213v6.583c0,0.082-0.018,0.159-0.024,0.238c1.371-1.447,2.635-2.996,3.776-4.635l-3.6-2.076 C134.051,181.292,134.006,181.248,133.954,181.213z"/> <path d="M127.395,184.516v-13.189l-11.375-4.5l-8.877,6.481c-1.152,0.841-2.716,0.841-3.868,0l-8.877-6.481l-11.404,4.501v13.187 h2.042v-8.482c0-1.812,1.469-3.28,3.279-3.28c1.813,0,3.28,1.468,3.28,3.28v8.482h27.235v-8.482c0-1.812,1.468-3.28,3.279-3.28 s3.28,1.468,3.28,3.28v8.482H127.395z"/> <path d="M105.451,131.441c-5.168,0-9.372,4.171-9.372,9.298c0,5.178,3.65,15.081,9.372,15.081c5.699,0,9.335-9.902,9.335-15.081 C114.786,135.612,110.598,131.441,105.451,131.441z"/> <path d="M79.701,191.075c6.896,5.829,15.796,9.353,25.508,9.353c9.713,0,18.616-3.525,25.512-9.356 c-0.016,0-0.031,0.004-0.047,0.004h-8.565H88.314h-8.601C79.709,191.076,79.705,191.075,79.701,191.075z"/> <path d="M105.568,353.293v-13.187l-11.41-4.503l-8.877,6.481c-1.153,0.842-2.72,0.842-3.872-0.003l-8.841-6.477l-11.407,4.501 v13.187h2.042v-8.483c0-1.812,1.469-3.279,3.28-3.279c1.812,0,3.28,1.468,3.28,3.279v8.483h27.205v-8.483 c0-1.812,1.468-3.279,3.28-3.279c1.811,0,3.28,1.468,3.28,3.279v8.483H105.568z"/> <path d="M83.618,300.218c-5.164,0-9.365,4.202-9.365,9.369c0,5.153,3.646,15.01,9.365,15.01c5.7,0,9.334-9.856,9.334-15.01 C92.953,304.42,88.765,300.218,83.618,300.218z"/> <path d="M264.283,137.324v-13.187l-11.407-4.5l-8.84,6.477c-1.152,0.845-2.719,0.847-3.873,0.004l-8.877-6.483l-11.41,4.502 v13.187h2.042v-8.482c0-1.812,1.468-3.28,3.279-3.28s3.28,1.468,3.28,3.28v8.482h27.205v-8.482c0-1.812,1.468-3.28,3.278-3.28 c1.813,0,3.28,1.468,3.28,3.28v8.482H264.283z"/> <path d="M100.246,359.853H66.481H57.88c-0.011,0-0.021-0.003-0.032-0.003c6.902,5.831,15.813,9.355,25.534,9.355 c9.714,0,18.616-3.526,25.513-9.357c-0.016,0-0.031,0.005-0.047,0.005H100.246z"/> <path d="M428.89,103.627c-5.163,0-9.364,4.173-9.364,9.302c0,5.178,3.646,15.081,9.364,15.081c5.699,0,9.335-9.903,9.335-15.081 C438.225,107.801,434.037,103.627,428.89,103.627z"/> <path d="M457.376,160.222c6.729-7.107,10.872-16.693,10.872-27.234c0-21.853-17.762-39.63-39.595-39.63 c-21.852,0-39.63,17.777-39.63,39.63c0,5.767,1.25,11.245,3.475,16.193l2.693-1.556c0.587-0.34,1.236-0.477,1.867-0.432 c-0.63-0.044-1.277,0.093-1.864,0.432l-149.813,86.511v-0.002l14.171-8.183c-3.447-4.317-8.458-7.334-14.171-8.179v-6.612 c8.132,0.924,15.251,5.232,19.901,11.481l9.335-5.391c-6.568-9.454-17.138-15.916-29.236-16.916v-47.247 c8.43-0.697,16.118-4.043,22.229-9.21c-0.017,0-0.031,0.004-0.048,0.004h-8.603h-33.764h-8.601c-0.012,0-0.022-0.002-0.033-0.002 c6.117,5.167,13.814,8.513,22.255,9.209v-5.006c0-1.811,1.468-3.28,3.28-3.28c0,0,0.001,0,0.002,0 c-1.811,0.001-3.278,1.469-3.278,3.28v86.057l-0.004-0.003v-16.367c-5.727,0.843-10.749,3.859-14.204,8.176l-5.735-3.308 c4.66-6.25,11.792-10.557,19.939-11.479v-10.826c-12.114,0.998-22.698,7.463-29.273,16.921l-68.544-39.531 c2.434-5.136,3.801-10.872,3.801-16.924c0-21.852-17.762-39.629-39.593-39.629c-21.832,0-39.594,17.778-39.594,39.629 c0,10.524,4.128,20.096,10.84,27.198c-0.004-0.068-0.021-0.133-0.021-0.203v-18.699c0-1.346,0.824-2.556,2.075-3.05l15.159-5.984 c1.048-0.414,2.231-0.261,3.139,0.402l8.402,6.134l8.402-6.134c0.909-0.664,2.094-0.815,3.14-0.402l15.13,5.984 c1.251,0.495,2.074,1.705,2.074,3.05v6.654c0.013-0.009,0.027-0.015,0.041-0.023c-0.432,0.275-0.814,0.642-1.087,1.116 c-0.905,1.568-0.366,3.575,1.203,4.479l101.431,58.497l-122.007,70.462c-1.569,0.905-2.106,2.912-1.2,4.48 c0.608,1.051,1.71,1.638,2.842,1.64h-0.002c-1.133,0-2.235-0.588-2.843-1.64c-0.906-1.568-0.369-3.575,1.2-4.48l3.284-1.897 c-7.03-11.07-19.383-18.438-33.431-18.438c-21.852,0-39.63,17.778-39.63,39.63c0,10.536,4.141,20.116,10.871,27.222 c-0.005-0.075-0.022-0.148-0.022-0.226v-18.699c0-1.346,0.823-2.556,2.076-3.051l15.166-5.984c1.048-0.412,2.234-0.26,3.142,0.405 l8.365,6.129l8.399-6.131c0.908-0.663,2.092-0.814,3.138-0.403l15.165,5.984c1.253,0.495,2.077,1.705,2.077,3.051v18.699 c0,0.081-0.018,0.158-0.025,0.237c6.731-7.105,10.874-16.691,10.874-27.233c0-5.451-1.106-10.649-3.105-15.381l89.688-51.797 c6.577,9.447,17.153,15.901,29.259,16.899v-10.758c-8.153-0.924-15.289-5.247-19.948-11.519l5.731-3.31 c3.455,4.339,8.483,7.371,14.217,8.217v-16.427l0.004-0.002v119.438c0,1.811,1.468,3.279,3.28,3.279 c1.811,0,3.28-1.469,3.28-3.279v-2.057c7.071,1.613,12.368,7.953,12.368,15.521c0,7.741-5.311,21.57-15.895,21.57 c-10.603,0-15.924-13.829-15.924-21.57c0-7.743,5.555-14.206,12.887-15.63v-3.792c-20.322,1.672-36.35,18.704-36.35,39.414 c0,10.531,4.137,20.108,10.863,27.213c-0.002-0.051-0.015-0.098-0.015-0.148V406.69c0-1.352,0.828-2.564,2.087-3.056l15.167-5.917 c1.038-0.405,2.212-0.254,3.115,0.398l8.409,6.086l8.375-6.083c0.904-0.655,2.079-0.807,3.12-0.401l15.166,5.917 c1.259,0.491,2.089,1.704,2.089,3.056v18.769c0,0.055-0.014,0.105-0.017,0.16c6.726-7.105,10.864-16.688,10.864-27.225 c0-20.707-16.01-37.738-36.31-39.413v-79.684c12.095-1,22.661-7.458,29.231-16.906l-9.313-5.381 c-4.649,6.275-11.776,10.603-19.918,11.529v-6.612c5.723-0.849,10.744-3.884,14.188-8.227l-14.188-8.198v-0.002l121.964,70.459 c0.517,0.299,1.079,0.44,1.636,0.441c-0.001,0-0.001,0-0.001,0c-0.559,0-1.122-0.143-1.639-0.441l-4.077-2.354 c-2.423,5.117-3.785,10.829-3.785,16.854c0,10.536,4.14,20.117,10.871,27.223c-0.006-0.076-0.022-0.148-0.022-0.227v-18.701 c0-1.352,0.828-2.564,2.088-3.055l15.166-5.915c1.039-0.407,2.214-0.255,3.118,0.401l8.376,6.083l8.409-6.086 c0.903-0.652,2.077-0.804,3.114-0.398l15.166,5.915c1.259,0.49,2.088,1.703,2.088,3.055v18.701c0,0.082-0.018,0.158-0.023,0.238 c6.729-7.107,10.871-16.692,10.871-27.234c0-21.815-17.76-39.562-39.592-39.562c-13.47,0-25.385,6.75-32.549,17.032 l-88.658-51.218c2.426-5.128,3.789-10.854,3.789-16.895c0-6.038-1.361-11.762-3.785-16.889l117.764-68.004 c1.257,1.882,2.674,3.649,4.226,5.286c-0.005-0.076-0.022-0.148-0.022-0.226v-8.323c0.297-0.756,0.313-1.608,0-2.398v-7.98 c0-1.346,0.823-2.556,2.076-3.051l15.166-5.984c1.04-0.41,2.221-0.262,3.125,0.395l8.41,6.085l8.375-6.083 c0.908-0.659,2.09-0.807,3.131-0.397l15.167,5.984c1.253,0.495,2.077,1.705,2.077,3.051v18.702 C457.4,160.066,457.381,160.143,457.376,160.222z M105.451,162.38c-10.607,0-15.932-13.873-15.932-21.64 c0-8.744,7.147-15.858,15.932-15.858c8.764,0,15.895,7.114,15.895,15.858C121.346,148.507,116.034,162.38,105.451,162.38z M83.618,331.156c-10.604,0-15.925-13.829-15.925-21.569c0-8.784,7.144-15.929,15.925-15.929c8.764,0,15.894,7.145,15.894,15.929 C99.512,317.327,94.201,331.156,83.618,331.156z M399.314,294.541c8.781,0,15.926,7.145,15.926,15.928 c0,7.742-5.322,21.573-15.926,21.573c-10.584,0-15.895-13.831-15.895-21.573C383.42,301.686,390.551,294.541,399.314,294.541z M136.094,175.225c-0.161-0.018-0.323-0.02-0.484-0.013C135.771,175.205,135.933,175.208,136.094,175.225z M137.336,175.618 c-0.155-0.086-0.315-0.156-0.477-0.215C137.021,175.462,137.181,175.531,137.336,175.618z M136.668,175.343 c-0.125-0.037-0.249-0.064-0.375-0.085C136.419,175.279,136.544,175.306,136.668,175.343z M134.76,175.367 c-0.006,0.002-0.011,0.004-0.018,0.006C134.749,175.371,134.754,175.369,134.76,175.367z M135.302,175.247 c-0.065,0.009-0.13,0.019-0.194,0.032C135.172,175.266,135.237,175.256,135.302,175.247z M270.975,239.819 c0,4.088-0.855,7.98-2.393,11.509l-5.729-3.309c1.004-2.541,1.563-5.306,1.563-8.2c0-2.892-0.561-5.655-1.568-8.193l5.727-3.307 C270.115,231.844,270.975,235.731,270.975,239.819z M398.631,153.193c0.111-0.073,0.223-0.147,0.322-0.232 C398.855,153.046,398.742,153.119,398.631,153.193z M399.252,152.661c0.028-0.033,0.062-0.064,0.089-0.097 C399.313,152.597,399.28,152.627,399.252,152.661z M428.89,134.569c-10.603,0-15.925-13.874-15.925-21.64 c0-8.746,7.145-15.861,15.925-15.861c8.765,0,15.896,7.115,15.896,15.861C444.785,120.696,439.473,134.569,428.89,134.569z"/> <path d="M403.119,163.262c6.903,5.831,15.813,9.355,25.534,9.355c9.714,0,18.616-3.525,25.513-9.357 c-0.016,0-0.031,0.005-0.046,0.005h-50.968C403.142,163.265,403.131,163.262,403.119,163.262z"/> <path d="M450.84,156.706v-13.19l-11.416-4.504l-8.843,6.422c-1.149,0.834-2.702,0.834-3.851,0.004l-8.88-6.427l-11.419,4.505 v13.19h2.043v-8.486c0-1.811,1.469-3.28,3.279-3.28s3.279,1.469,3.279,3.28v8.417h27.241v-8.417c0-1.811,1.469-3.28,3.28-3.28 c1.811,0,3.279,1.469,3.279,3.28v8.486H450.84z"/> <path d="M264.283,422.179v-13.247l-11.408-4.451l-8.85,6.427c-1.148,0.834-2.702,0.835-3.85,0.003l-8.888-6.432l-11.412,4.453 v13.247h2.042v-8.553c0-1.811,1.468-3.279,3.279-3.279s3.28,1.469,3.28,3.279v8.482h27.205v-8.482 c0-1.811,1.468-3.279,3.278-3.279c1.813,0,3.28,1.469,3.28,3.279v8.553H264.283z"/> <path d="M206.255,222.933c-2.425,5.126-3.787,10.849-3.787,16.886c0,6.044,1.366,11.775,3.797,16.906l9.317-5.38 c-1.543-3.534-2.404-7.431-2.404-11.526c0-4.089,0.862-7.979,2.406-11.505L206.255,222.933z"/> <path d="M221.313,231.617c-1.012,2.541-1.575,5.306-1.575,8.202c0,2.901,0.561,5.672,1.572,8.218l14.227-8.216L221.313,231.617z"/> <path d="M232.491,378.402c0,5.154,3.646,15.011,9.364,15.011c5.701,0,9.335-9.856,9.335-15.011c0-5.166-4.188-9.369-9.335-9.369 C236.692,369.033,232.491,373.236,232.491,378.402z"/> <path d="M242.098,438.021c9.673,0,18.542-3.494,25.427-9.282h-50.878C223.539,434.526,232.416,438.021,242.098,438.021z"/> </g> </g> <g id="Layer_1"/> </g>
</svg>